<mxfile host="Electron" modified="2024-03-27T17:20:00.869Z" agent="Mozilla/5.0 (X11; Linux x86_64) AppleWebKit/537.36 (KHTML, like Gecko) draw.io/22.1.18 Chrome/120.0.6099.216 Electron/28.1.4 Safari/537.36" etag="oeB11Je2tK0Zbym6ozRN" version="22.1.18" type="device">
  <diagram name="Seite-1" id="kwcYK0KusiBgSEy0G_rr">
    <mxGraphModel dx="1395" dy="1894" grid="1" gridSize="10" guides="1" tooltips="1" connect="1" arrows="1" fold="1" page="1" pageScale="1" pageWidth="827" pageHeight="1169" math="0" shadow="0">
      <root>
        <mxCell id="0" />
        <mxCell id="1" parent="0" />
        <mxCell id="rg2BYRyxIHWAQSk8PXkA-46" value="" style="rounded=0;whiteSpace=wrap;html=1;" parent="1" vertex="1">
          <mxGeometry y="-40" width="1150" height="430" as="geometry" />
        </mxCell>
        <mxCell id="rg2BYRyxIHWAQSk8PXkA-1" value="login" style="shape=umlLifeline;perimeter=lifelinePerimeter;whiteSpace=wrap;html=1;container=1;dropTarget=0;collapsible=0;recursiveResize=0;outlineConnect=0;portConstraint=eastwest;newEdgeStyle={&quot;curved&quot;:0,&quot;rounded&quot;:0};fillColor=#7EA6E0;" parent="1" vertex="1">
          <mxGeometry x="10" y="30" width="100" height="200" as="geometry" />
        </mxCell>
        <mxCell id="rg2BYRyxIHWAQSk8PXkA-3" value="" style="html=1;points=[[0,0,0,0,5],[0,1,0,0,-5],[1,0,0,0,5],[1,1,0,0,-5]];perimeter=orthogonalPerimeter;outlineConnect=0;targetShapes=umlLifeline;portConstraint=eastwest;newEdgeStyle={&quot;curved&quot;:0,&quot;rounded&quot;:0};" parent="rg2BYRyxIHWAQSk8PXkA-1" vertex="1">
          <mxGeometry x="45" y="60" width="10" height="120" as="geometry" />
        </mxCell>
        <mxCell id="rg2BYRyxIHWAQSk8PXkA-2" value="register" style="shape=umlLifeline;perimeter=lifelinePerimeter;whiteSpace=wrap;html=1;container=1;dropTarget=0;collapsible=0;recursiveResize=0;outlineConnect=0;portConstraint=eastwest;newEdgeStyle={&quot;curved&quot;:0,&quot;rounded&quot;:0};fillColor=#7EA6E0;" parent="1" vertex="1">
          <mxGeometry x="120" y="30" width="100" height="130" as="geometry" />
        </mxCell>
        <mxCell id="rg2BYRyxIHWAQSk8PXkA-10" value="" style="html=1;points=[[0,0,0,0,5],[0,1,0,0,-5],[1,0,0,0,5],[1,1,0,0,-5]];perimeter=orthogonalPerimeter;outlineConnect=0;targetShapes=umlLifeline;portConstraint=eastwest;newEdgeStyle={&quot;curved&quot;:0,&quot;rounded&quot;:0};" parent="rg2BYRyxIHWAQSk8PXkA-2" vertex="1">
          <mxGeometry x="45" y="70" width="10" height="50" as="geometry" />
        </mxCell>
        <mxCell id="rg2BYRyxIHWAQSk8PXkA-4" value="register" style="html=1;verticalAlign=bottom;endArrow=block;curved=0;rounded=0;exitX=1;exitY=0;exitDx=0;exitDy=5;exitPerimeter=0;" parent="1" target="rg2BYRyxIHWAQSk8PXkA-10" edge="1">
          <mxGeometry relative="1" as="geometry">
            <mxPoint x="65" y="100" as="sourcePoint" />
            <mxPoint x="160" y="100" as="targetPoint" />
            <Array as="points">
              <mxPoint x="110" y="100" />
            </Array>
          </mxGeometry>
        </mxCell>
        <mxCell id="rg2BYRyxIHWAQSk8PXkA-5" value="" style="html=1;verticalAlign=bottom;endArrow=open;dashed=1;endSize=8;curved=0;rounded=0;entryX=1;entryY=1;entryDx=0;entryDy=-5;entryPerimeter=0;" parent="1" edge="1">
          <mxGeometry relative="1" as="geometry">
            <mxPoint x="65" y="150" as="targetPoint" />
            <mxPoint x="165" y="150" as="sourcePoint" />
            <Array as="points">
              <mxPoint x="120" y="150" />
            </Array>
          </mxGeometry>
        </mxCell>
        <mxCell id="rg2BYRyxIHWAQSk8PXkA-6" value="/register" style="shape=umlLifeline;perimeter=lifelinePerimeter;whiteSpace=wrap;html=1;container=1;dropTarget=0;collapsible=0;recursiveResize=0;outlineConnect=0;portConstraint=eastwest;newEdgeStyle={&quot;curved&quot;:0,&quot;rounded&quot;:0};fillColor=#7EA6E0;" parent="1" vertex="1">
          <mxGeometry x="700" y="30" width="100" height="340" as="geometry" />
        </mxCell>
        <mxCell id="rg2BYRyxIHWAQSk8PXkA-8" value="/login" style="shape=umlLifeline;perimeter=lifelinePerimeter;whiteSpace=wrap;html=1;container=1;dropTarget=0;collapsible=0;recursiveResize=0;outlineConnect=0;portConstraint=eastwest;newEdgeStyle={&quot;curved&quot;:0,&quot;rounded&quot;:0};fillColor=#7EA6E0;" parent="1" vertex="1">
          <mxGeometry x="810" y="30" width="100" height="340" as="geometry" />
        </mxCell>
        <mxCell id="rg2BYRyxIHWAQSk8PXkA-12" value="interceptor" style="shape=umlLifeline;perimeter=lifelinePerimeter;whiteSpace=wrap;html=1;container=1;dropTarget=0;collapsible=0;recursiveResize=0;outlineConnect=0;portConstraint=eastwest;newEdgeStyle={&quot;curved&quot;:0,&quot;rounded&quot;:0};fillColor=#E1D5E7;" parent="1" vertex="1">
          <mxGeometry x="494" y="30" width="100" height="340" as="geometry" />
        </mxCell>
        <mxCell id="rg2BYRyxIHWAQSk8PXkA-14" value="token" style="html=1;verticalAlign=bottom;endArrow=open;dashed=1;endSize=8;curved=0;rounded=0;" parent="1" edge="1">
          <mxGeometry x="-0.0012" relative="1" as="geometry">
            <mxPoint x="859.48" y="220" as="sourcePoint" />
            <mxPoint x="440.02380952380963" y="220" as="targetPoint" />
            <Array as="points">
              <mxPoint x="659.98" y="220" />
            </Array>
            <mxPoint as="offset" />
          </mxGeometry>
        </mxCell>
        <mxCell id="rg2BYRyxIHWAQSk8PXkA-16" value="authService" style="shape=umlLifeline;perimeter=lifelinePerimeter;whiteSpace=wrap;html=1;container=1;dropTarget=0;collapsible=0;recursiveResize=0;outlineConnect=0;portConstraint=eastwest;newEdgeStyle={&quot;curved&quot;:0,&quot;rounded&quot;:0};fillColor=#E1D5E7;" parent="1" vertex="1">
          <mxGeometry x="390" y="30" width="100" height="340" as="geometry" />
        </mxCell>
        <mxCell id="rg2BYRyxIHWAQSk8PXkA-21" value="register" style="html=1;verticalAlign=bottom;endArrow=block;curved=0;rounded=0;" parent="1" source="rg2BYRyxIHWAQSk8PXkA-10" target="rg2BYRyxIHWAQSk8PXkA-16" edge="1">
          <mxGeometry x="-0.3573" relative="1" as="geometry">
            <mxPoint x="180" y="110" as="sourcePoint" />
            <mxPoint x="280" y="110" as="targetPoint" />
            <Array as="points">
              <mxPoint x="225" y="110" />
            </Array>
            <mxPoint as="offset" />
          </mxGeometry>
        </mxCell>
        <mxCell id="rg2BYRyxIHWAQSk8PXkA-22" value="login" style="html=1;verticalAlign=bottom;endArrow=block;curved=0;rounded=0;" parent="1" source="rg2BYRyxIHWAQSk8PXkA-3" target="rg2BYRyxIHWAQSk8PXkA-16" edge="1">
          <mxGeometry x="-0.6794" relative="1" as="geometry">
            <mxPoint x="70" y="180" as="sourcePoint" />
            <mxPoint x="310" y="180" as="targetPoint" />
            <Array as="points">
              <mxPoint x="130" y="180" />
              <mxPoint x="180" y="180" />
            </Array>
            <mxPoint as="offset" />
          </mxGeometry>
        </mxCell>
        <mxCell id="rg2BYRyxIHWAQSk8PXkA-23" value="login" style="html=1;verticalAlign=bottom;startArrow=oval;startFill=1;endArrow=block;startSize=8;curved=0;rounded=0;" parent="1" edge="1">
          <mxGeometry width="60" relative="1" as="geometry">
            <mxPoint x="439.66666666666674" y="200" as="sourcePoint" />
            <mxPoint x="859.5" y="200" as="targetPoint" />
          </mxGeometry>
        </mxCell>
        <mxCell id="rg2BYRyxIHWAQSk8PXkA-24" value="register" style="html=1;verticalAlign=bottom;startArrow=oval;startFill=1;endArrow=block;startSize=8;curved=0;rounded=0;" parent="1" edge="1">
          <mxGeometry x="0.3577" width="60" relative="1" as="geometry">
            <mxPoint x="439.66666666666674" y="120" as="sourcePoint" />
            <mxPoint x="749.5" y="120" as="targetPoint" />
            <mxPoint as="offset" />
          </mxGeometry>
        </mxCell>
        <mxCell id="rg2BYRyxIHWAQSk8PXkA-25" value="order-view" style="shape=umlLifeline;perimeter=lifelinePerimeter;whiteSpace=wrap;html=1;container=1;dropTarget=0;collapsible=0;recursiveResize=0;outlineConnect=0;portConstraint=eastwest;newEdgeStyle={&quot;curved&quot;:0,&quot;rounded&quot;:0};fillColor=#FFB570;" parent="1" vertex="1">
          <mxGeometry x="10" y="240" width="100" height="80" as="geometry" />
        </mxCell>
        <mxCell id="rg2BYRyxIHWAQSk8PXkA-26" value="" style="html=1;points=[[0,0,0,0,5],[0,1,0,0,-5],[1,0,0,0,5],[1,1,0,0,-5]];perimeter=orthogonalPerimeter;outlineConnect=0;targetShapes=umlLifeline;portConstraint=eastwest;newEdgeStyle={&quot;curved&quot;:0,&quot;rounded&quot;:0};" parent="rg2BYRyxIHWAQSk8PXkA-25" vertex="1">
          <mxGeometry x="45" y="50" width="10" height="30" as="geometry" />
        </mxCell>
        <mxCell id="rg2BYRyxIHWAQSk8PXkA-27" value="order-service" style="shape=umlLifeline;perimeter=lifelinePerimeter;whiteSpace=wrap;html=1;container=1;dropTarget=0;collapsible=0;recursiveResize=0;outlineConnect=0;portConstraint=eastwest;newEdgeStyle={&quot;curved&quot;:0,&quot;rounded&quot;:0};fillColor=#E1D5E7;" parent="1" vertex="1">
          <mxGeometry x="280" y="30" width="100" height="340" as="geometry" />
        </mxCell>
        <mxCell id="rg2BYRyxIHWAQSk8PXkA-28" style="edgeStyle=orthogonalEdgeStyle;rounded=0;orthogonalLoop=1;jettySize=auto;html=1;curved=0;" parent="1" edge="1">
          <mxGeometry relative="1" as="geometry">
            <mxPoint x="65" y="320" as="sourcePoint" />
            <mxPoint x="195" y="320.01111111111106" as="targetPoint" />
            <Array as="points">
              <mxPoint x="150" y="320.4" />
              <mxPoint x="150" y="320.4" />
            </Array>
          </mxGeometry>
        </mxCell>
        <mxCell id="rg2BYRyxIHWAQSk8PXkA-34" value="newOrder" style="edgeLabel;html=1;align=center;verticalAlign=middle;resizable=0;points=[];" parent="rg2BYRyxIHWAQSk8PXkA-28" vertex="1" connectable="0">
          <mxGeometry x="-0.1516" y="1" relative="1" as="geometry">
            <mxPoint y="-9" as="offset" />
          </mxGeometry>
        </mxCell>
        <mxCell id="rg2BYRyxIHWAQSk8PXkA-30" value="newOrder" style="html=1;verticalAlign=bottom;startArrow=oval;startFill=1;endArrow=block;startSize=8;curved=0;rounded=0;" parent="1" target="rg2BYRyxIHWAQSk8PXkA-31" edge="1">
          <mxGeometry x="0.0321" width="60" relative="1" as="geometry">
            <mxPoint x="330" y="340" as="sourcePoint" />
            <mxPoint x="730" y="340" as="targetPoint" />
            <mxPoint as="offset" />
          </mxGeometry>
        </mxCell>
        <mxCell id="rg2BYRyxIHWAQSk8PXkA-31" value="/order" style="shape=umlLifeline;perimeter=lifelinePerimeter;whiteSpace=wrap;html=1;container=1;dropTarget=0;collapsible=0;recursiveResize=0;outlineConnect=0;portConstraint=eastwest;newEdgeStyle={&quot;curved&quot;:0,&quot;rounded&quot;:0};fillColor=#FFB570;" parent="1" vertex="1">
          <mxGeometry x="920" y="30" width="100" height="340" as="geometry" />
        </mxCell>
        <mxCell id="rg2BYRyxIHWAQSk8PXkA-38" value="" style="html=1;verticalAlign=bottom;endArrow=block;curved=0;rounded=0;" parent="1" edge="1">
          <mxGeometry x="-0.3364" y="10" relative="1" as="geometry">
            <mxPoint x="60" y="230" as="sourcePoint" />
            <mxPoint x="60" y="240" as="targetPoint" />
            <Array as="points" />
            <mxPoint as="offset" />
          </mxGeometry>
        </mxCell>
        <mxCell id="rg2BYRyxIHWAQSk8PXkA-41" value="http" style="html=1;verticalAlign=bottom;startArrow=oval;startFill=1;endArrow=block;startSize=8;curved=0;rounded=0;" parent="1" edge="1">
          <mxGeometry width="60" relative="1" as="geometry">
            <mxPoint x="1050" y="120" as="sourcePoint" />
            <mxPoint x="1140" y="120" as="targetPoint" />
          </mxGeometry>
        </mxCell>
        <mxCell id="rg2BYRyxIHWAQSk8PXkA-42" style="edgeStyle=orthogonalEdgeStyle;rounded=0;orthogonalLoop=1;jettySize=auto;html=1;curved=0;" parent="1" edge="1">
          <mxGeometry relative="1" as="geometry">
            <mxPoint x="1050" y="100" as="sourcePoint" />
            <mxPoint x="1140" y="100" as="targetPoint" />
            <Array as="points">
              <mxPoint x="1105" y="100" />
              <mxPoint x="1105" y="100" />
            </Array>
          </mxGeometry>
        </mxCell>
        <mxCell id="rg2BYRyxIHWAQSk8PXkA-43" value="function call" style="edgeLabel;html=1;align=center;verticalAlign=middle;resizable=0;points=[];" parent="rg2BYRyxIHWAQSk8PXkA-42" vertex="1" connectable="0">
          <mxGeometry x="-0.1516" y="1" relative="1" as="geometry">
            <mxPoint x="3" y="-9" as="offset" />
          </mxGeometry>
        </mxCell>
        <mxCell id="rg2BYRyxIHWAQSk8PXkA-44" style="edgeStyle=orthogonalEdgeStyle;rounded=0;orthogonalLoop=1;jettySize=auto;html=1;curved=0;" parent="1" source="rg2BYRyxIHWAQSk8PXkA-12" edge="1">
          <mxGeometry relative="1" as="geometry">
            <mxPoint x="550" y="314.86" as="sourcePoint" />
            <mxPoint x="610" y="340" as="targetPoint" />
            <Array as="points">
              <mxPoint x="610" y="360" />
            </Array>
          </mxGeometry>
        </mxCell>
        <mxCell id="rg2BYRyxIHWAQSk8PXkA-45" value="add token" style="edgeLabel;html=1;align=center;verticalAlign=middle;resizable=0;points=[];" parent="rg2BYRyxIHWAQSk8PXkA-44" vertex="1" connectable="0">
          <mxGeometry x="-0.1516" y="1" relative="1" as="geometry">
            <mxPoint x="-1" y="-9" as="offset" />
          </mxGeometry>
        </mxCell>
        <mxCell id="rg2BYRyxIHWAQSk8PXkA-48" value="&lt;font style=&quot;font-size: 14px;&quot;&gt;Legende&lt;/font&gt;" style="text;html=1;strokeColor=none;fillColor=none;align=center;verticalAlign=middle;whiteSpace=wrap;rounded=0;" parent="1" vertex="1">
          <mxGeometry x="1060" y="50" width="60" height="30" as="geometry" />
        </mxCell>
        <mxCell id="rAmAcw-Nx8G0RGVH7cyK-1" value="&lt;span style=&quot;font-size: 18px;&quot;&gt;Runtime View - Frontend/Backend&lt;/span&gt;&amp;nbsp;&amp;nbsp;" style="text;html=1;strokeColor=none;fillColor=none;align=center;verticalAlign=middle;whiteSpace=wrap;rounded=0;" parent="1" vertex="1">
          <mxGeometry x="10" y="-30" width="300" height="30" as="geometry" />
        </mxCell>
        <mxCell id="ARqN9oDZSx4ZnQ8hy5PB-1" value="checkout" style="shape=umlLifeline;perimeter=lifelinePerimeter;whiteSpace=wrap;html=1;container=1;dropTarget=0;collapsible=0;recursiveResize=0;outlineConnect=0;portConstraint=eastwest;newEdgeStyle={&quot;curved&quot;:0,&quot;rounded&quot;:0};fillColor=#FFB570;" vertex="1" parent="1">
          <mxGeometry x="150" y="250" width="100" height="90" as="geometry" />
        </mxCell>
        <mxCell id="ARqN9oDZSx4ZnQ8hy5PB-2" value="" style="html=1;points=[[0,0,0,0,5],[0,1,0,0,-5],[1,0,0,0,5],[1,1,0,0,-5]];perimeter=orthogonalPerimeter;outlineConnect=0;targetShapes=umlLifeline;portConstraint=eastwest;newEdgeStyle={&quot;curved&quot;:0,&quot;rounded&quot;:0};" vertex="1" parent="ARqN9oDZSx4ZnQ8hy5PB-1">
          <mxGeometry x="45" y="60" width="10" height="30" as="geometry" />
        </mxCell>
        <mxCell id="ARqN9oDZSx4ZnQ8hy5PB-5" style="edgeStyle=orthogonalEdgeStyle;rounded=0;orthogonalLoop=1;jettySize=auto;html=1;curved=0;" edge="1" parent="1" source="ARqN9oDZSx4ZnQ8hy5PB-2">
          <mxGeometry relative="1" as="geometry">
            <mxPoint x="210" y="330" as="sourcePoint" />
            <mxPoint x="330" y="330" as="targetPoint" />
            <Array as="points">
              <mxPoint x="260" y="330" />
              <mxPoint x="260" y="330" />
            </Array>
          </mxGeometry>
        </mxCell>
        <mxCell id="ARqN9oDZSx4ZnQ8hy5PB-6" value="newOrder" style="edgeLabel;html=1;align=center;verticalAlign=middle;resizable=0;points=[];" vertex="1" connectable="0" parent="ARqN9oDZSx4ZnQ8hy5PB-5">
          <mxGeometry x="-0.1516" y="1" relative="1" as="geometry">
            <mxPoint y="-9" as="offset" />
          </mxGeometry>
        </mxCell>
      </root>
    </mxGraphModel>
  </diagram>
</mxfile>
